<svg width="24" height="24" viewBox="0 0 24 24" fill="none" xmlns="http://www.w3.org/2000/svg">
<path d="M7.5 3H14.6C16.8402 3 17.9603 3 18.816 3.43597C19.5686 3.81947 20.1805 4.43139 20.564 5.18404C21 6.03968 21 7.15979 21 9.4V16.5" stroke="white" stroke-opacity="0.8" stroke-linecap="round" stroke-linejoin="round"/>
<rect x="3" y="6.5" width="14.5" height="14.5" rx="2" stroke="white" stroke-opacity="0.8" stroke-linecap="round" stroke-linejoin="round"/>
<path d="M8 11.6967C8 11.3776 8 11.218 8.07131 11.1301C8.13344 11.0535 8.2284 11.0061 8.33119 11.0003C8.44918 10.9938 8.59148 11.0823 8.87606 11.2593L12.5794 13.5626C12.8146 13.7088 12.9322 13.782 12.9731 13.8741C13.009 13.9547 13.009 14.0453 12.9731 14.1259C12.9322 14.218 12.8146 14.2912 12.5794 14.4374L8.87606 16.7407C8.59148 16.9177 8.44918 17.0062 8.33119 16.9997C8.2284 16.9939 8.13344 16.9465 8.07131 16.8699C8 16.782 8 16.6224 8 16.3033V11.6967Z" stroke="white" stroke-opacity="0.8" stroke-linecap="round" stroke-linejoin="round"/>
</svg>
