<svg width="22" height="20" viewBox="0 0 22 20" fill="none" xmlns="http://www.w3.org/2000/svg">
<path d="M3.71363 6.70747H1.83337V13.3894H3.71363V6.70747Z" fill="#CBD2D9"/>
<path fill-rule="evenodd" clip-rule="evenodd" d="M7.77387 6.70747L7.34654 9.81532L7.04741 8.14485C6.96194 7.60098 6.87647 7.1348 6.83374 6.70747H4.35522V13.3894H6.02181V8.99951L6.70554 13.3894H7.90207L8.58579 8.88297V13.3894H10.2524V6.70747H7.77387Z" fill="#CBD2D9"/>
<path fill-rule="evenodd" clip-rule="evenodd" d="M13.1602 13.3894C13.6303 13.3894 13.9722 13.3505 14.1858 13.3117C14.3995 13.2728 14.6132 13.1951 14.7414 13.0786C14.9123 12.962 14.9978 12.8066 15.0832 12.6124C15.126 12.4182 15.1687 11.9908 15.1687 11.4081V9.07721C15.1687 8.45563 15.126 8.0283 15.0832 7.79522C15.0405 7.56213 14.955 7.36789 14.7841 7.21249C14.6132 7.01825 14.3568 6.90171 14.0576 6.82401C13.7585 6.74631 13.203 6.70747 12.3056 6.70747H10.8954V13.3894H13.1602ZM13.203 7.91176C13.2884 7.95061 13.3312 8.0283 13.3312 8.106C13.3739 8.1837 13.3739 8.37794 13.3739 8.68872V11.2916C13.3739 11.7189 13.3312 11.9908 13.2884 12.1074C13.2457 12.2239 13.0748 12.2628 12.7756 12.2628V7.87291C12.9893 7.87291 13.1175 7.87291 13.203 7.91176Z" fill="#CBD2D9"/>
<path fill-rule="evenodd" clip-rule="evenodd" d="M15.851 6.70552V13.3874H17.5603L17.6885 12.9601C17.8594 13.1155 18.0303 13.2709 18.2013 13.3486C18.3722 13.4263 18.6713 13.4651 18.885 13.4651C19.1841 13.4651 19.4405 13.3874 19.6542 13.232C19.8679 13.0766 19.9961 12.9212 20.0815 12.727C20.1243 12.5327 20.167 12.222 20.167 11.8335V9.96877C20.167 9.58028 20.167 9.30835 20.1243 9.1918C20.1243 9.07526 20.0388 8.95871 19.9533 8.80332C19.8679 8.68677 19.6969 8.57023 19.526 8.49253C19.3551 8.41484 19.1414 8.37599 18.885 8.37599C18.6713 8.37599 18.3722 8.41484 18.2013 8.49253C18.0303 8.57023 17.8594 8.68677 17.6885 8.84217V6.66667H15.851V6.70552ZM18.2867 11.7558C18.2867 12.0666 18.2867 12.2608 18.244 12.3774C18.2013 12.455 18.0731 12.4939 17.9449 12.4939C17.8167 12.4939 17.7739 12.455 17.7312 12.3774C17.6885 12.2997 17.6885 12.1054 17.6885 11.7946V10.0465C17.6885 9.73568 17.6885 9.54143 17.7312 9.46374C17.7739 9.38604 17.8594 9.34719 17.9449 9.34719C18.0731 9.34719 18.2013 9.38604 18.244 9.46374C18.2867 9.54143 18.2867 9.73568 18.2867 10.0076V11.7558Z" fill="#CBD2D9"/>
</svg>
