<svg width="20" height="20" viewBox="0 0 20 20" fill="none" xmlns="http://www.w3.org/2000/svg">
<path d="M9.7283 2.58333C9.30829 2.58333 8.92768 2.83068 8.7571 3.21449L6.79666 7.62548C6.7491 7.73249 6.72426 7.78769 6.70391 7.82654L6.7021 7.82997L6.69823 7.83023C6.65446 7.83305 6.59393 7.83333 6.47683 7.83333L6.01089 7.83333C5.70339 7.83332 5.43811 7.83331 5.21961 7.85116C4.98899 7.87001 4.75961 7.91161 4.53889 8.02407C4.20961 8.19185 3.94189 8.45957 3.77411 8.78885C3.66165 9.00957 3.62005 9.23895 3.60121 9.46957C3.58336 9.68806 3.58336 9.95333 3.58337 10.2608V12.9891C3.58336 13.2966 3.58336 13.5619 3.60121 13.7804C3.62005 14.0111 3.66165 14.2404 3.77411 14.4611C3.94189 14.7904 4.20961 15.0581 4.53889 15.2259C4.75961 15.3384 4.98899 15.38 5.21961 15.3988C5.43811 15.4167 5.70338 15.4167 6.01088 15.4167C6.28104 15.4167 6.50004 15.1977 6.50004 14.9275L6.50004 10.1667C6.50004 9.8445 6.76121 9.58333 7.08337 9.58333C7.40554 9.58333 7.66671 9.8445 7.66671 10.1667V14.4833C7.66671 14.81 7.66671 14.9734 7.73029 15.0982C7.78621 15.2079 7.87545 15.2972 7.98521 15.3531C8.11 15.4167 8.27334 15.4167 8.60004 15.4167H12.2865C12.6941 15.4167 13.0325 15.4167 13.3109 15.3955C13.6017 15.3734 13.8696 15.3259 14.1284 15.2087C14.533 15.0253 14.8768 14.7303 15.1195 14.3583C15.2747 14.1204 15.3624 13.8628 15.4285 13.5788C15.4918 13.3068 15.5432 12.9724 15.6052 12.5695L15.9176 10.5386C15.9997 10.0049 16.0671 9.56735 16.0909 9.21024C16.1154 8.84179 16.0994 8.498 15.9737 8.16846C15.7807 7.66246 15.4177 7.23935 14.9469 6.97166C14.6403 6.79732 14.303 6.72916 13.9351 6.69742C13.5785 6.66665 13.1358 6.66666 12.5958 6.66667H12.1C11.9271 6.66667 11.8324 6.66621 11.7644 6.66066L11.7567 6.65999L11.7561 6.6523C11.7505 6.58429 11.75 6.48964 11.75 6.31667V4.60507C11.75 3.4885 10.8449 2.58333 9.7283 2.58333Z" fill="#CBD2D9"/>
</svg>
