<svg width="24" height="24" viewBox="0 0 24 24" fill="none" xmlns="http://www.w3.org/2000/svg">
<g clip-path="url(#clip0_52_1931)">
<path d="M16.2427 16.2426C18.5858 13.8995 18.5858 10.1005 16.2427 7.75732" stroke="white" stroke-opacity="0.8" stroke-linecap="round" stroke-linejoin="round"/>
<path d="M7.75736 16.2426C5.41421 13.8995 5.41421 10.1005 7.75736 7.75732" stroke="white" stroke-opacity="0.8" stroke-linecap="round" stroke-linejoin="round"/>
<path d="M4.92871 19.0708C1.02347 15.1656 1.02347 8.83395 4.92871 4.92871" stroke="white" stroke-opacity="0.8" stroke-linecap="round" stroke-linejoin="round"/>
<path d="M19.0713 19.0713C22.9765 15.1661 22.9765 8.83444 19.0713 4.9292" stroke="white" stroke-opacity="0.8" stroke-linecap="round" stroke-linejoin="round"/>
<path d="M12 14C13.1046 14 14 13.1046 14 12C14 10.8954 13.1046 10 12 10C10.8954 10 10 10.8954 10 12C10 13.1046 10.8954 14 12 14Z" fill="#FF4953" stroke="#FF4953" stroke-linecap="round" stroke-linejoin="round"/>
</g>
<defs>
<clipPath id="clip0_52_1931">
<rect width="24" height="24" fill="white"/>
</clipPath>
</defs>
</svg>
