<svg width="35" height="36" viewBox="0 0 35 36" fill="none" xmlns="http://www.w3.org/2000/svg">
<g clip-path="url(#clip0_152_569)">
<path d="M16.0417 26.75H18.9583V23.8334H16.0417V26.75ZM17.5 3.41669C9.45 3.41669 2.91667 9.95002 2.91667 18C2.91667 26.05 9.45 32.5834 17.5 32.5834C25.55 32.5834 32.0833 26.05 32.0833 18C32.0833 9.95002 25.55 3.41669 17.5 3.41669ZM17.5 29.6667C11.0688 29.6667 5.83334 24.4313 5.83334 18C5.83334 11.5688 11.0688 6.33335 17.5 6.33335C23.9313 6.33335 29.1667 11.5688 29.1667 18C29.1667 24.4313 23.9313 29.6667 17.5 29.6667ZM17.5 9.25002C14.2771 9.25002 11.6667 11.8604 11.6667 15.0834H14.5833C14.5833 13.4792 15.8958 12.1667 17.5 12.1667C19.1042 12.1667 20.4167 13.4792 20.4167 15.0834C20.4167 18 16.0417 17.6354 16.0417 22.375H18.9583C18.9583 19.0938 23.3333 18.7292 23.3333 15.0834C23.3333 11.8604 20.7229 9.25002 17.5 9.25002Z" fill="#4F5251"/>
</g>
<defs>
<clipPath id="clip0_152_569">
<rect width="35" height="35" fill="white" transform="translate(0 0.5)"/>
</clipPath>
</defs>
</svg>
